{"accessors" : [{"bufferView" : 0, "byteOffset" : 0, "componentType" : 5123, "count" : 36, "type" : "SCALAR", "max" : [35], "min" : [0]}, {"bufferView" : 1, "byteOffset" : 0, "componentType" : 5126, "count" : 36, "type" : "VEC3", "max" : [0.02500000037252903, 0.05000000074505806, 0.05000000074505806], "min" : [-0.02500000037252903, -0.05000000074505806, -0.05000000074505806], "name" : "POSITION"}, {"bufferView" : 1, "byteOffset" : 12, "componentType" : 5126, "count" : 36, "type" : "VEC3", "max" : [0, 1.0000044107437134, 1.0000044107437134], "min" : [0, 0, -1.0000044107437134], "name" : "NORMAL"}, {"bufferView" : 1, "byteOffset" : 24, "componentType" : 5126, "count" : 36, "type" : "VEC2", "max" : [0.6000000238418579, -0.4000000059604645], "min" : [0.4000000059604645, -0.6000000238418579], "name" : "TEXCOORD_0"}, {"bufferView" : 0, "byteOffset" : 72, "componentType" : 5123, "count" : 36, "type" : "SCALAR", "max" : [35], "min" : [0]}, {"bufferView" : 2, "byteOffset" : 0, "componentType" : 5126, "count" : 36, "type" : "VEC3", "max" : [0.02500000037252903, 0.02500000037252903, 0.02500000037252903], "min" : [-0.02500000037252903, -0.02500000037252903, -0.02500000037252903], "name" : "POSITION"}, {"bufferView" : 2, "byteOffset" : 12, "componentType" : 5126, "count" : 36, "type" : "VEC3", "max" : [0, 1.0000044107437134, 1.0000044107437134], "min" : [0, 0, -1.0000044107437134], "name" : "NORMAL"}, {"bufferView" : 2, "byteOffset" : 24, "componentType" : 5126, "count" : 36, "type" : "VEC2", "max" : [0.550000011920929, -0.44999998807907104], "min" : [0.44999998807907104, -0.550000011920929], "name" : "TEXCOORD_0"}, {"bufferView" : 0, "byteOffset" : 144, "componentType" : 5123, "count" : 36, "type" : "SCALAR", "max" : [35], "min" : [0]}, {"bufferView" : 3, "byteOffset" : 0, "componentType" : 5126, "count" : 36, "type" : "VEC3", "max" : [0.02500000037252903, 0.02500000037252903, 0.02500000037252903], "min" : [-0.02500000037252903, -0.02500000037252903, -0.02500000037252903], "name" : "POSITION"}, {"bufferView" : 3, "byteOffset" : 12, "componentType" : 5126, "count" : 36, "type" : "VEC3", "max" : [0, 1.0000044107437134, 1.0000044107437134], "min" : [0, 0, -1.0000044107437134], "name" : "NORMAL"}, {"bufferView" : 3, "byteOffset" : 24, "componentType" : 5126, "count" : 36, "type" : "VEC2", "max" : [0.550000011920929, -0.44999998807907104], "min" : [0.44999998807907104, -0.550000011920929], "name" : "TEXCOORD_0"}, {"bufferView" : 0, "byteOffset" : 216, "componentType" : 5123, "count" : 36, "type" : "SCALAR", "max" : [35], "min" : [0]}, {"bufferView" : 4, "byteOffset" : 0, "componentType" : 5126, "count" : 36, "type" : "VEC3", "max" : [0.02500000037252903, 0.05000000074505806, 0.05000000074505806], "min" : [-0.02500000037252903, -0.05000000074505806, -0.05000000074505806], "name" : "POSITION"}, {"bufferView" : 4, "byteOffset" : 12, "componentType" : 5126, "count" : 36, "type" : "VEC3", "max" : [0, 1.0000044107437134, 1.0000044107437134], "min" : [0, 0, -1.0000044107437134], "name" : "NORMAL"}, {"bufferView" : 4, "byteOffset" : 24, "componentType" : 5126, "count" : 36, "type" : "VEC2", "max" : [0.6000000238418579, -0.4000000059604645], "min" : [0.4000000059604645, -0.6000000238418579], "name" : "TEXCOORD_0"}], "asset" : {"generator" : "Aspose.3D 22.7", "version" : "2.0"}, "buffers" : [{"uri" : "data:application/octet-stream;base64,", "byteLength" : 4916}], "bufferViews" : [{"buffer" : 0, "byteOffset" : 0, "byteLength" : 288, "target" : 34963}, {"buffer" : 0, "byteOffset" : 292, "byteLength" : 1152, "byteStride" : 32, "target" : 34962}, {"buffer" : 0, "byteOffset" : 1448, "byteLength" : 1152, "byteStride" : 32, "target" : 34962}, {"buffer" : 0, "byteOffset" : 2604, "byteLength" : 1152, "byteStride" : 32, "target" : 34962}, {"buffer" : 0, "byteOffset" : 3760, "byteLength" : 1152, "byteStride" : 32, "target" : 34962}], "materials" : [{"name" : "Material", "pbrMetallicRoughness" : {"baseColorFactor" : [1, 1, 0.0331048, 1], "metallicFactor" : 0, "roughnessFactor" : 0}, "emissiveFactor" : [0, 0, 0], "alphaMode" : "OPAQUE", "doubleSided" : false}, {"name" : "Material", "pbrMetallicRoughness" : {"baseColorFactor" : [0, 0, 0, 1], "metallicFactor" : 0, "roughnessFactor" : 0}, "emissiveFactor" : [0, 0, 0], "alphaMode" : "OPAQUE", "doubleSided" : false}, {"name" : "Material", "pbrMetallicRoughness" : {"baseColorFactor" : [0.0331048, 0.318547, 1, 1], "metallicFactor" : 0, "roughnessFactor" : 0}, "emissiveFactor" : [0, 0, 0], "alphaMode" : "OPAQUE", "doubleSided" : false}, {"name" : "Material", "pbrMetallicRoughness" : {"baseColorFactor" : [1, 0.318547, 0.0331048, 1], "metallicFactor" : 0, "roughnessFactor" : 0}, "emissiveFactor" : [0, 0, 0], "alphaMode" : "OPAQUE", "doubleSided" : false}], "meshes" : [{"primitives" : [{"attributes" : {"POSITION" : 1, "NORMAL" : 2, "TEXCOORD_0" : 3}, "indices" : 0, "material" : 0, "mode" : 4}], "name" : ""}, {"primitives" : [{"attributes" : {"POSITION" : 5, "NORMAL" : 6, "TEXCOORD_0" : 7}, "indices" : 4, "material" : 1, "mode" : 4}], "name" : ""}, {"primitives" : [{"attributes" : {"POSITION" : 9, "NORMAL" : 10, "TEXCOORD_0" : 11}, "indices" : 8, "material" : 2, "mode" : 4}], "name" : ""}, {"primitives" : [{"attributes" : {"POSITION" : 13, "NORMAL" : 14, "TEXCOORD_0" : 15}, "indices" : 12, "material" : 3, "mode" : 4}], "name" : ""}], "nodes" : [{"mesh" : 0, "name" : "Mesh0"}, {"children" : [0], "name" : "Mesh0"}, {"children" : [1], "name" : "Generated"}, {"children" : [2], "matrix" : [4.29507, 4.295071, -6.074145, 0, -6.074144, 6.074147, 2.816067E-06, 0, 4.29507, 4.295066, 6.074145, 0, -0.1073768, 0.6258373, 0.1518536, 1], "name" : "AE52801C7DAE42EB81E472FFB1291232"}, {"mesh" : 1, "name" : "Mesh0"}, {"children" : [4], "name" : "Mesh0"}, {"children" : [5], "name" : "Generated"}, {"children" : [6], "matrix" : [4.295071, 4.295073, -6.074146, 0, -6.074145, 6.074146, 2.816067E-06, 0, 4.29507, 4.295066, 6.074146, 0, 0.07441009, 1.099022, -0.001671513, 1], "name" : "E4BD2CC4EB6B4A6F9578957C3E054178"}, {"mesh" : 2, "name" : "Mesh0"}, {"children" : [8], "name" : "Mesh0"}, {"children" : [9], "name" : "Generated"}, {"children" : [10], "matrix" : [4.295071, 4.295073, -6.074146, 0, -6.074145, 6.074146, 2.816067E-06, 0, 4.29507, 4.295066, 6.074146, 0, 0.0662039, 1.10361, -0.001671508, 1], "name" : "FBB7B4458FC84744A910F9707A8DCB66"}, {"mesh" : 3, "name" : "Mesh0"}, {"children" : [12], "name" : "Mesh0"}, {"children" : [13], "name" : "Generated"}, {"children" : [14], "matrix" : [4.29507, 4.295071, -6.074145, 0, -6.074144, 6.074147, 2.816067E-06, 0, 4.29507, 4.295066, 6.074145, 0, 0.1073767, 0.840591, -0.1518536, 1], "name" : "_82B53DD7A47E436C84E1A92CFBEE8803"}, {"children" : [3, 7, 11, 15], "matrix" : [1, 0, 0, 0, 0, 1, 0, 0, 0, 0, 1, 0, 2.000001, -0.7350005, -4.163481E-07, 1], "name" : "Children"}, {"children" : [16], "matrix" : [5.960463E-08, -0.9999996, 8.742272E-08, 0, 0.9999995, 5.960462E-08, -1.509957E-07, 0, 1.509958E-07, 8.742273E-08, 0.9999998, 0, 0, 2, 1.689152E-07, 1], "name" : "BC486AB310BD45EC9EEBB270DE738439"}, {"children" : [17], "name" : "Children"}, {"children" : [18], "name" : "Scene"}, {"children" : [19], "name" : "Scenes"}, {"children" : [20], "name" : "Root"}], "scene" : 0, "scenes" : [{"nodes" : [21]}]}